<svg id="Capa_1" data-name="Capa 1" xmlns="http://www.w3.org/2000/svg" xmlns:xlink="http://www.w3.org/1999/xlink" viewBox="0 0 29.88 33.12"><defs><style>.cls-1{fill:url(#Degradado_sin_nombre_11);}.cls-2{fill:url(#Degradado_sin_nombre_11-2);}</style><linearGradient id="Degradado_sin_nombre_11" x1="581.53" y1="391.62" x2="609.65" y2="391.62" gradientTransform="matrix(1, 0, 0, -1, 0, 770)" gradientUnits="userSpaceOnUse"><stop offset="0" stop-color="#23022e"/><stop offset="1" stop-color="#573280"/></linearGradient><linearGradient id="Degradado_sin_nombre_11-2" x1="580.42" y1="399.25" x2="610.3" y2="399.25" xlink:href="#Degradado_sin_nombre_11"/></defs><path class="cls-1" d="M608.13,367.32l-12.77,22.12-12.77-22.12h25.54m.63-1.25c-36.23,1.12-31.25-7.33-14.17,24.55,1.42,3.45,14.22-23.36,14.95-23.22A.9.9,0,0,0,608.76,366.07Z" transform="translate(-580.42 -357.81)"/><path class="cls-2" d="M595.36,357.81l-14.94,25.88H610.3Zm-3.63,10,.84,1.46-4.09,7.08-.85-1.47Zm-2.65,9.58,4.09-7.08L599.91,382h-8.18Z" transform="translate(-580.42 -357.81)"/></svg>